<?xml version="1.0" encoding="UTF-8"?>
<svg width="522px" height="248px" viewBox="0 0 522 248" version="1.1" xmlns="http://www.w3.org/2000/svg" xmlns:xlink="http://www.w3.org/1999/xlink">
    <!-- Generator: Sketch 56.3 (81716) - https://sketch.com -->
    <title>Uncrowd_logo_fullcolor</title>
    <desc>Created with Sketch.</desc>
    <defs>
        <path d="M84.6186646,105.034664 C83.4506646,103.722664 82.8666646,102.042664 82.8666646,99.9866642 L82.8666646,99.9866642 L82.8666646,50.1679987 C82.8666646,38.7733324 80.015998,29.9173326 74.3226648,23.6079994 L74.3226648,23.6079994 C68.6293316,17.2933329 60.0133318,14.1386663 48.4879988,14.1386663 L48.4879988,14.1386663 C36.9573324,14.1386663 28.378666,17.2933329 22.7546661,23.6079994 L22.7546661,23.6079994 C17.1253329,29.9173326 14.3146663,38.7733324 14.3146663,50.1679987 L14.3146663,50.1679987 L14.3146663,105.543997 C13.7626663,105.818664 12.9039997,106.127997 11.7386664,106.471997 L11.7386664,106.471997 C10.5733331,106.813331 9.3733331,106.986664 8.1359998,106.986664 L8.1359998,106.986664 C5.52799986,106.986664 3.63999991,106.333331 2.4746666,105.034664 L2.4746666,105.034664 C1.3093333,103.722664 0.725333315,102.042664 0.725333315,99.9866642 L0.725333315,99.9866642 L0.725333315,46.0479988 C0.725333315,39.591999 1.82133329,33.6959992 4.01866657,28.3413326 L4.01866657,28.3413326 C6.21066651,22.9866661 9.3733331,18.3893329 13.4906663,14.5466663 L13.4906663,14.5466663 C17.6053329,10.7066664 22.6159994,7.71999981 28.5173326,5.58933319 L28.5173326,5.58933319 C34.4186658,3.46666658 41.0773323,2.39999994 48.4879988,2.39999994 L48.4879988,2.39999994 C55.8986653,2.39999994 62.5893318,3.46666658 68.5599983,5.58933319 L68.5599983,5.58933319 C74.5306648,7.71999981 79.575998,10.7066664 83.6906646,14.5466663 L83.6906646,14.5466663 C87.8106645,18.3893329 90.9653311,22.9866661 93.1599977,28.3413326 L93.1599977,28.3413326 C95.3573309,33.6959992 96.4559976,39.591999 96.4559976,46.0479988 L96.4559976,46.0479988 L96.4559976,105.543997 C95.9066643,105.818664 95.0479976,106.127997 93.8799977,106.471997 L93.8799977,106.471997 C92.7146643,106.813331 91.517331,106.986664 90.2799977,106.986664 L90.2799977,106.986664 C87.6719978,106.986664 85.7866645,106.333331 84.6186646,105.034664" id="path-1"></path>
        <linearGradient x1="100.000724%" y1="50.0016599%" x2="-0.000545976211%" y2="50.0016599%" id="linearGradient-3">
            <stop stop-color="#1E64AF" offset="0%"></stop>
            <stop stop-color="#1E64AF" offset="51.174056%"></stop>
            <stop stop-color="#30358D" offset="65.162%"></stop>
            <stop stop-color="#30358D" offset="100%"></stop>
        </linearGradient>
        <path d="M28.7946659,103.175997 C22.8239994,101.045331 17.7786662,98.0639975 13.661333,94.2186643 L13.661333,94.2186643 C9.54399976,90.3786644 6.38933317,85.7786666 4.19466656,80.423998 L4.19466656,80.423998 C1.99733328,75.0719981 0.895999978,69.1706649 0.895999978,62.7173318 L0.895999978,62.7173318 L0.895999978,3.22133325 C1.4453333,2.94933326 2.30399994,2.63733327 3.47466658,2.29333328 L3.47466658,2.29333328 C4.63999988,1.94933328 5.83733319,1.77866662 7.07466649,1.77866662 L7.07466649,1.77866662 C9.67999976,1.77866662 11.5679997,2.43199994 12.7359997,3.73066657 L12.7359997,3.73066657 C13.901333,5.04266654 14.485333,6.7226665 14.485333,8.77866662 L14.485333,8.77866662 L14.485333,58.5999985 C14.485333,69.9919983 17.3386662,78.8453314 23.0293328,85.1573312 L23.0293328,85.1573312 C28.7253326,91.4719977 37.3413324,94.6266643 48.8639988,94.6266643 L48.8639988,94.6266643 C60.3973318,94.6266643 68.9733316,91.4719977 74.5999981,85.1573312 L74.5999981,85.1573312 C80.2293313,78.8453314 83.0399979,69.9919983 83.0399979,58.5999985 L83.0399979,58.5999985 L83.0399979,3.22133325 C83.5919979,2.94933326 84.4506646,2.63733327 85.6159979,2.29333328 L85.6159979,2.29333328 C86.7813312,1.94933328 87.9839978,1.77866662 89.2213311,1.77866662 L89.2213311,1.77866662 C91.829331,1.77866662 93.717331,2.43199994 94.8799976,3.73066657 L94.8799976,3.73066657 C96.0453309,5.04266654 96.6293309,6.7226665 96.6293309,8.77866662 L96.6293309,8.77866662 L96.6293309,62.7173318 C96.6293309,69.1706649 95.5359976,75.0719981 93.3359977,80.423998 L93.3359977,80.423998 C91.1413311,85.7786666 87.9839978,90.3786644 83.8666646,94.2186643 L83.8666646,94.2186643 C79.7493313,98.0639975 74.7386648,101.045331 68.8373316,103.175997 L68.8373316,103.175997 C62.9359984,105.298664 56.2773319,106.365331 48.8639988,106.365331 L48.8639988,106.365331 C41.4533323,106.365331 34.7653325,105.298664 28.7946659,103.175997" id="path-4"></path>
        <linearGradient x1="100.000752%" y1="49.9985212%" x2="0.00226740947%" y2="49.9985212%" id="linearGradient-6">
            <stop stop-color="#36C1D0" offset="0%"></stop>
            <stop stop-color="#36C1D0" offset="18.631711%"></stop>
            <stop stop-color="#30358D" offset="100%"></stop>
        </linearGradient>
        <polygon id="path-7" points="0 383.99999 767.999981 383.99999 767.999981 0 0 0"></polygon>
        <path d="M24.1439994,69.0719983 C19.7013328,67.4853316 15.8933329,65.1519984 12.7199997,62.0666651 L12.7199997,62.0666651 C9.54399976,58.9839985 7.05333316,55.2026653 5.24266654,50.7146654 L5.24266654,50.7146654 C3.42399991,46.2239988 2.51999994,41.1253323 2.51999994,35.4106658 L2.51999994,35.4106658 C2.51999994,29.8799993 3.42399991,24.938666 5.24266654,20.5893328 L5.24266654,20.5893328 C7.05333316,16.2373329 9.54399976,12.565333 12.7199997,9.57333309 L12.7199997,9.57333309 C15.8933329,6.5786665 19.6773328,4.31199989 24.0773327,2.77333326 L24.0773327,2.77333326 C28.4719993,1.23199997 33.2079992,0.458666655 38.287999,0.458666655 L38.287999,0.458666655 C43.9119989,0.458666655 48.4426655,1.02933331 51.8879987,2.16266661 L51.8879987,2.16266661 C55.3333319,3.29333325 58.3706652,4.58399989 60.9999985,6.03733318 L60.9999985,6.03733318 L57.3279986,12.6986663 C55.8773319,11.885333 53.813332,10.9306664 51.1386654,9.84266642 L51.1386654,9.84266642 C48.4666655,8.75733311 44.7253322,8.21333313 39.919999,8.21333313 L39.919999,8.21333313 C36.1119991,8.21333313 32.5093325,8.75733311 29.1066659,9.84266642 L29.1066659,9.84266642 C25.7093327,10.9306664 22.7626661,12.5866664 20.2719995,14.8079996 L20.2719995,14.8079996 C17.7733329,17.0293329 15.8026663,19.9093328 14.3519996,23.4453327 L14.3519996,23.4453327 C12.9039997,26.9813327 12.1759997,31.1946659 12.1759997,36.0933324 L12.1759997,36.0933324 C12.1759997,40.8026656 12.8319997,44.9066655 14.1519996,48.3999988 L14.1519996,48.3999988 C15.4613329,51.8879987 17.2959996,54.7679986 19.6586662,57.0373319 L19.6586662,57.0373319 C22.0159994,59.3039985 24.802666,60.9813318 28.0213326,62.0666651 L28.0213326,62.0666651 C31.2399992,63.1546651 34.7519991,63.6986651 38.559999,63.6986651 L38.559999,63.6986651 C43.5466656,63.6986651 47.6933321,62.9759984 51.0053321,61.5226651 L51.0053321,61.5226651 C54.3146653,60.0719985 56.7386652,58.6693319 58.2799985,57.3066652 L58.2799985,57.3066652 C59.2773319,58.0319985 60.0239985,58.8933319 60.5253318,59.8933318 L60.5253318,59.8933318 C61.0213318,60.8879985 61.2719985,61.7519985 61.2719985,62.4746651 L61.2719985,62.4746651 C61.2719985,63.4746651 61.0479985,64.3119984 60.5919985,64.9919984 L60.5919985,64.9919984 C60.1359985,65.6719984 59.5946652,66.2373317 58.9573319,66.6933317 L58.9573319,66.6933317 C58.1439985,67.4159983 56.0586653,68.394665 52.7039987,69.6186649 L52.7039987,69.6186649 C49.3493321,70.8426649 44.6799989,71.4533315 38.695999,71.4533315 L38.695999,71.4533315 C33.4373325,71.4533315 28.5839993,70.6586649 24.1439994,69.0719983" id="path-9"></path>
        <linearGradient x1="-0.000830610022%" y1="71.9347369%" x2="671.753799%" y2="71.9347369%" id="linearGradient-11">
            <stop stop-color="#36C1D0" offset="0%"></stop>
            <stop stop-color="#36C1D0" offset="70.172048%"></stop>
            <stop stop-color="#30358D" offset="100%"></stop>
        </linearGradient>
        <path d="M9.39999977,64.9919984 C4.68266655,60.6853318 2.32533328,54.589332 2.32533328,46.7013322 L2.32533328,46.7013322 L2.32533328,2.36533327 L11.3039997,2.36533327 L11.3039997,42.4826656 C11.3039997,45.8399989 11.6186664,48.8319988 12.2559997,51.4586654 L12.2559997,51.4586654 C12.885333,54.0879986 13.9759997,56.2879986 15.5199996,58.0559985 L15.5199996,58.0559985 C17.0586662,59.8266652 19.0773329,61.1599985 21.5706661,62.0666651 L21.5706661,62.0666651 C24.0613327,62.9759984 27.1679993,63.4293317 30.8853326,63.4293317 L30.8853326,63.4293317 C34.0586658,63.4293317 36.8239991,63.1093318 39.1813324,62.4746651 L39.1813324,62.4746651 C41.5386656,61.8426651 43.4879989,61.1599985 45.0293322,60.4373318 L45.0293322,60.4373318 C45.4826655,60.8879985 45.9599989,61.4773318 46.4586655,62.2053318 L46.4586655,62.2053318 C46.9573322,62.9279984 47.2053322,63.7439984 47.2053322,64.6533317 L47.2053322,64.6533317 C47.2053322,67.0079983 45.5733322,68.7333316 42.3119989,69.8186649 L42.3119989,69.8186649 C39.0453324,70.9093316 34.9679991,71.4533315 30.0719992,71.4533315 L30.0719992,71.4533315 C21.0053328,71.4533315 14.109333,69.2959983 9.39999977,64.9919984" id="path-12"></path>
        <linearGradient x1="-159.995146%" y1="71.1602015%" x2="719.392733%" y2="71.1602015%" id="linearGradient-14">
            <stop stop-color="#36C1D0" offset="0%"></stop>
            <stop stop-color="#36C1D0" offset="70.172048%"></stop>
            <stop stop-color="#30358D" offset="100%"></stop>
        </linearGradient>
        <path d="M23.6559994,68.7333316 C19.2133329,66.914665 15.3839996,64.3999984 12.165333,61.1839985 L12.165333,61.1839985 C8.94666644,57.9653319 6.43199984,54.2026653 4.61599988,49.8959988 L4.61599988,49.8959988 C2.8026666,45.5893322 1.89866662,40.943999 1.89866662,35.9546658 L1.89866662,35.9546658 C1.89866662,31.0586659 2.8026666,26.4586667 4.61599988,22.1519994 L4.61599988,22.1519994 C6.43199984,17.8453329 8.94666644,14.0799996 12.165333,10.8639997 L12.165333,10.8639997 C15.3839996,7.64533314 19.2133329,5.10666654 23.6559994,3.24533325 L23.6559994,3.24533325 C28.1013326,1.39199997 32.9519992,0.458666655 38.2106657,0.458666655 L38.2106657,0.458666655 C43.4693322,0.458666655 48.3199988,1.39199997 52.7599987,3.24533325 L52.7599987,3.24533325 C57.2026652,5.10666654 61.0346651,7.64533314 64.2559984,10.8639997 L64.2559984,10.8639997 C67.4719983,14.0799996 69.9893316,17.8453329 71.8026649,22.1519994 L71.8026649,22.1519994 C73.6159982,26.4586667 74.5226648,31.0586659 74.5226648,35.9546658 L74.5226648,35.9546658 C74.5226648,40.943999 73.6159982,45.5893322 71.8026649,49.8959988 L71.8026649,49.8959988 C69.9893316,54.2026653 67.4719983,57.9653319 64.2559984,61.1839985 L64.2559984,61.1839985 C61.0346651,64.3999984 57.2026652,66.914665 52.7599987,68.7333316 L52.7599987,68.7333316 C48.3199988,70.5439982 43.4693322,71.4533315 38.2106657,71.4533315 L38.2106657,71.4533315 C32.9519992,71.4533315 28.1013326,70.5439982 23.6559994,68.7333316 M27.3279993,10.3893331 C24.0666661,11.837333 21.2773328,13.8079997 18.9679995,16.3039996 L18.9679995,16.3039996 C16.6559996,18.7946662 14.8399996,21.7439995 13.5279997,25.146666 L13.5279997,25.146666 C12.2079997,28.5439993 11.5519997,32.1493325 11.5519997,35.9546658 L11.5519997,35.9546658 C11.5519997,39.8533323 12.1866664,43.5066656 13.4559997,46.9039988 L13.4559997,46.9039988 C14.7279996,50.3066654 16.5413329,53.2746653 18.8986662,55.8133319 L18.8986662,55.8133319 C21.2533328,58.3466652 24.0666661,60.3226652 27.3279993,61.7279985 L27.3279993,61.7279985 C30.5946659,63.1333318 34.2186658,63.8373317 38.2106657,63.8373317 L38.2106657,63.8373317 C42.1999989,63.8373317 45.8266655,63.1333318 49.0879988,61.7279985 L49.0879988,61.7279985 C52.3546654,60.3226652 55.1626653,58.3466652 57.5226652,55.8133319 L57.5226652,55.8133319 C59.8799985,53.2746653 61.6906651,50.3066654 62.9599984,46.9039988 L62.9599984,46.9039988 C64.2319984,43.5066656 64.866665,39.8533323 64.866665,35.9546658 L64.866665,35.9546658 C64.866665,32.1493325 64.2319984,28.5439993 62.9599984,25.146666 L62.9599984,25.146666 C61.6906651,21.7439995 59.8799985,18.7946662 57.5226652,16.3039996 L57.5226652,16.3039996 C55.1626653,13.8079997 52.3546654,11.837333 49.0879988,10.3893331 L49.0879988,10.3893331 C45.8266655,8.93599978 42.1999989,8.21333313 38.2106657,8.21333313 L38.2106657,8.21333313 C34.2186658,8.21333313 30.5946659,8.93599978 27.3279993,10.3893331" id="path-15"></path>
        <linearGradient x1="-171.723518%" y1="71.9347369%" x2="371.718429%" y2="71.9347369%" id="linearGradient-17">
            <stop stop-color="#36C1D0" offset="0%"></stop>
            <stop stop-color="#36C1D0" offset="70.172048%"></stop>
            <stop stop-color="#30358D" offset="100%"></stop>
        </linearGradient>
        <path d="M99.9759975,68.5279983 C99.2453309,67.8479983 98.6586642,66.7813317 98.2053309,65.3333317 L98.2053309,65.3333317 C95.7599976,56.5359986 92.8346643,47.4693321 89.4346644,38.1333324 L89.4346644,38.1333324 C86.0373312,28.7946659 82.6106646,19.5439995 79.1653314,10.3893331 L79.1653314,10.3893331 C77.5359981,14.7386663 75.8346648,19.4533328 74.0666648,24.5333327 L74.0666648,24.5333327 C72.2986649,29.6106659 70.5306649,34.7066658 68.7599983,39.8346657 L68.7599983,39.8346657 C66.994665,44.9519989 65.3173317,49.9653321 63.7306651,54.8586653 L63.7306651,54.8586653 C62.1413318,59.7573318 60.7599985,64.2453317 59.5813318,68.3253316 L59.5813318,68.3253316 C59.3119985,68.5039983 58.7439985,68.7519983 57.8826652,69.0719983 L57.8826652,69.0719983 C57.0213319,69.3866649 55.9546653,69.5493316 54.685332,69.5493316 L54.685332,69.5493316 C52.869332,69.5493316 51.4239987,69.1839983 50.3333321,68.4613316 L50.3333321,68.4613316 C49.2453321,67.7333316 48.3839988,66.3279983 47.7519988,64.2453317 L47.7519988,64.2453317 C46.1199988,58.7119985 44.5306656,53.5679987 42.9893323,48.8079988 L42.9893323,48.8079988 C41.4453323,44.0479989 39.951999,39.511999 38.5013324,35.2106658 L38.5013324,35.2106658 C37.0506657,30.9013326 35.6239991,26.7093327 34.2186658,22.6293328 L34.2186658,22.6293328 C32.8106658,18.5493329 31.3839992,14.469333 29.9333326,10.3893331 L29.9333326,10.3893331 C28.3919993,14.7386663 26.690666,19.4986662 24.834666,24.6693327 L24.834666,24.6693327 C22.9759994,29.8346659 21.1173328,35.0266658 19.2586662,40.239999 L19.2586662,40.239999 C17.3973329,45.4533322 15.6746663,50.5279987 14.0879996,55.4693319 L14.0879996,55.4693319 C12.5039997,60.4133318 11.2079997,64.8773317 10.2159997,68.8693316 L10.2159997,68.8693316 C10.0319997,68.9573316 9.62133309,69.0933316 8.99199978,69.2746649 L8.99199978,69.2746649 C8.35466646,69.4586649 7.53599981,69.5493316 6.54399984,69.5493316 L6.54399984,69.5493316 C4.90933321,69.5493316 3.68533324,69.0719983 2.87199993,68.1199983 L2.87199993,68.1199983 C2.05333328,67.170665 1.64799996,66.0559983 1.64799996,64.7893317 L1.64799996,64.7893317 C1.64799996,63.8799984 1.84799995,62.7946651 2.25866661,61.5226651 L2.25866661,61.5226651 C2.66399993,60.2533318 3.05066659,59.1226652 3.41333325,58.1253319 L3.41333325,58.1253319 C3.68533324,57.3973319 4.50133322,55.1306653 5.86399985,51.3253321 L5.86399985,51.3253321 C7.22133315,47.5173321 8.90133311,42.9386656 10.8933331,37.5866657 L10.8933331,37.5866657 C12.885333,32.2346659 15.0639996,26.4373327 17.4213329,20.1813328 L17.4213329,20.1813328 C19.7759995,13.9226663 22.0453328,7.9839998 24.2213327,2.36533327 L24.2213327,2.36533327 L35.1039991,2.36533327 C36.0053324,4.89866654 37.2293324,8.30399979 38.775999,12.565333 L38.775999,12.565333 C40.3146657,16.8239996 41.9466656,21.5173328 43.6719989,26.6399993 L43.6719989,26.6399993 C45.3919989,31.7626659 47.1359988,37.0879991 48.9066654,42.6213323 L48.9066654,42.6213323 C50.6719987,48.1493321 52.325332,53.453332 53.8719987,58.5333319 L53.8719987,58.5333319 C55.4106653,53.5439987 57.1119986,48.2666655 58.9679985,42.6879989 L58.9679985,42.6879989 C60.8266651,37.1119991 62.6639984,31.7386659 64.4773317,26.570666 L64.4773317,26.570666 C66.290665,21.4053328 67.9679983,16.6666662 69.5093316,12.3599997 L69.5093316,12.3599997 C71.0506649,8.05066647 72.3173315,4.72266655 73.3173315,2.36533327 L73.3173315,2.36533327 L84.1999979,2.36533327 C86.3759978,7.80266647 88.6853311,13.6319997 91.1333311,19.8426662 L91.1333311,19.8426662 C93.581331,26.0479993 95.9146643,32.1679992 98.1359975,38.199999 L98.1359975,38.199999 C100.357331,44.2293322 102.354664,49.8479988 104.119997,55.0639986 L104.119997,55.0639986 C105.887997,60.2746652 107.181331,64.5599984 107.997331,67.9173316 L107.997331,67.9173316 C107.815997,68.0959983 107.319997,68.4133316 106.501331,68.8693316 L106.501331,68.8693316 C105.685331,69.3199983 104.639997,69.5493316 103.373331,69.5493316 L103.373331,69.5493316 C101.831997,69.5493316 100.701331,69.2079983 99.9759975,68.5279983" id="path-18"></path>
        <linearGradient x1="-194.762376%" y1="73.1768874%" x2="176.344116%" y2="73.1768874%" id="linearGradient-20">
            <stop stop-color="#36C1D0" offset="0%"></stop>
            <stop stop-color="#36C1D0" offset="70.172048%"></stop>
            <stop stop-color="#30358D" offset="100%"></stop>
        </linearGradient>
        <path d="M64.0346651,101.306664 C63.2666651,100.442664 62.8799984,99.3333308 62.8799984,97.9706642 L62.8799984,97.9706642 L62.8799984,58.2613319 C60.1599985,62.3413318 56.5759986,65.5573317 52.1359987,67.9173316 L52.1359987,67.9173316 C47.6906655,70.2746649 42.4799989,71.4533315 36.4959991,71.4533315 L36.4959991,71.4533315 C31.1439992,71.4533315 26.2719993,70.5439982 21.8773328,68.7333316 L21.8773328,68.7333316 C17.4773329,66.914665 13.6906663,64.3999984 10.5199997,61.1839985 L10.5199997,61.1839985 C7.34666648,57.9653319 4.87466654,54.2026653 3.10666659,49.8959988 L3.10666659,49.8959988 C1.3413333,45.5893322 0.455999989,40.943999 0.455999989,35.9546658 L0.455999989,35.9546658 C0.455999989,31.0586659 1.3413333,26.4586667 3.10666659,22.1519994 L3.10666659,22.1519994 C4.87466654,17.8453329 7.34666648,14.0799996 10.5199997,10.8639997 L10.5199997,10.8639997 C13.6906663,7.64533314 17.4773329,5.10666654 21.8773328,3.24533325 L21.8773328,3.24533325 C26.2719993,1.39199997 31.1439992,0.458666655 36.4959991,0.458666655 L36.4959991,0.458666655 C41.0266656,0.458666655 45.2426655,1.11999997 49.1439988,2.43199994 L49.1439988,2.43199994 C53.0426653,3.74399991 56.4879986,5.62666653 59.4799985,8.07466646 L59.4799985,8.07466646 C62.4746651,10.5226664 64.9653317,13.5146663 66.9599983,17.0506662 L66.9599983,17.0506662 C68.9519983,20.5893328 70.3599982,24.5786661 71.1759982,29.0186659 L71.1759982,29.0186659 C71.3546649,30.2906659 71.5146649,31.7626659 71.6533315,33.4399992 L71.6533315,33.4399992 C71.7866649,35.1173325 71.8559982,37.0426657 71.8559982,39.2213324 L71.8559982,39.2213324 L71.8559982,101.645331 C71.4906649,101.826664 70.9253316,102.026664 70.1546649,102.258664 L70.1546649,102.258664 C69.3839983,102.479997 68.594665,102.597331 67.7759983,102.597331 L67.7759983,102.597331 C66.0533317,102.597331 64.8053317,102.165331 64.0346651,101.306664 M25.5493327,10.3893331 C22.3253328,11.837333 19.5626662,13.8079997 17.2506662,16.3039996 L17.2506662,16.3039996 C14.9386663,18.7946662 13.1706663,21.7439995 11.9466664,25.146666 L11.9466664,25.146666 C10.7226664,28.5439993 10.1093331,32.1493325 10.1093331,35.9546658 L10.1093331,35.9546658 C10.1093331,39.8533323 10.7226664,43.5066656 11.9466664,46.9039988 L11.9466664,46.9039988 C13.1706663,50.3066654 14.9386663,53.2746653 17.2506662,55.8133319 L17.2506662,55.8133319 C19.5626662,58.3466652 22.3253328,60.3226652 25.5493327,61.7279985 L25.5493327,61.7279985 C28.7653326,63.1333318 32.4159992,63.8373317 36.4959991,63.8373317 L36.4959991,63.8373317 C40.303999,63.8373317 43.8159989,63.1093318 47.0346655,61.6613318 L47.0346655,61.6613318 C50.2559987,60.2079985 53.0186653,58.2133331 55.3306653,55.6773319 L55.3306653,55.6773319 C57.6453319,53.1359987 59.4559985,50.1439987 60.7706651,46.7013322 L60.7706651,46.7013322 C62.0853318,43.2506656 62.7439984,39.5786657 62.7439984,35.6853324 L62.7439984,35.6853324 C62.7439984,31.6933325 62.1093331,28.0213326 60.8399985,24.6693327 L60.8399985,24.6693327 C59.5706652,21.3146661 57.7999986,18.4106662 55.5359986,15.9626663 L55.5359986,15.9626663 C53.2666653,13.5146663 50.5039987,11.613333 47.2373322,10.2506664 L47.2373322,10.2506664 C43.9733322,8.89333311 40.391999,8.21333313 36.4959991,8.21333313 L36.4959991,8.21333313 C32.4159992,8.21333313 28.7653326,8.93599978 25.5493327,10.3893331" id="path-21"></path>
        <linearGradient x1="-452.758853%" y1="50.000483%" x2="99.9992418%" y2="50.000483%" id="linearGradient-23">
            <stop stop-color="#36C1D0" offset="0%"></stop>
            <stop stop-color="#36C1D0" offset="70.172048%"></stop>
            <stop stop-color="#30358D" offset="100%"></stop>
        </linearGradient>
        <path d="M74.9279981,69.5333316 C71.1093316,68.170665 67.874665,66.266665 65.2053317,63.8426651 L65.2053317,63.8426651 L65.2053317,70.6879982 C64.842665,70.8666649 64.2773317,71.0719982 63.5066651,71.2986649 L63.5066651,71.2986649 C62.7359984,71.5253315 61.9439985,71.6426649 61.1253318,71.6426649 L61.1253318,71.6426649 C59.4053318,71.6426649 58.1573319,71.2106649 57.3866652,70.3466649 L57.3866652,70.3466649 C56.6159986,69.4826649 56.2293319,68.3759983 56.2293319,67.0159983 L56.2293319,67.0159983 L56.2293319,34.1039991 C56.2293319,26.578666 54.349332,20.7306661 50.5893321,16.5599996 L50.5893321,16.5599996 C46.8239988,12.3866664 41.1333323,10.3039997 33.5199992,10.3039997 L33.5199992,10.3039997 C25.9013327,10.3039997 20.2346662,12.3866664 16.5199996,16.5599996 L16.5199996,16.5599996 C12.7999997,20.7306661 10.9439997,26.578666 10.9439997,34.1039991 L10.9439997,34.1039991 L10.9439997,70.6879982 C10.5786664,70.8666649 10.0106664,71.0719982 9.24266644,71.2986649 L9.24266644,71.2986649 C8.47199979,71.5253315 7.67733314,71.6426649 6.86133316,71.6426649 L6.86133316,71.6426649 C5.13866654,71.6426649 3.89066657,71.2106649 3.12266659,70.3466649 L3.12266659,70.3466649 C2.35199994,69.4826649 1.96533328,68.3759983 1.96533328,67.0159983 L1.96533328,67.0159983 L1.96533328,31.3839992 C1.96533328,27.1199993 2.6906666,23.2239994 4.14133323,19.6879995 L4.14133323,19.6879995 C5.59199986,16.1519996 7.67733314,13.1119997 10.3999997,10.5759997 L10.3999997,10.5759997 C13.1199997,8.03733313 16.4293329,6.06666651 20.3253328,4.65866655 L20.3253328,4.65866655 C24.2266661,3.25599992 28.6239993,2.55199994 33.5199992,2.55199994 L33.5199992,2.55199994 C38.415999,2.55199994 42.8346656,3.25599992 46.7786655,4.65866655 L46.7786655,4.65866655 C50.5973321,6.02133318 53.8319987,7.92266647 56.5013319,10.3466664 L56.5013319,10.3466664 L56.5013319,3.50399991 C56.8639986,3.32533325 57.4293319,3.11999992 58.1999985,2.89333326 L58.1999985,2.89333326 C58.9733319,2.66399993 59.7626652,2.55199994 60.5813318,2.55199994 L60.5813318,2.55199994 C62.3013318,2.55199994 63.5493317,2.98399993 64.3199984,3.84266657 L64.3199984,3.84266657 C65.0933317,4.70666655 65.4773317,5.81599985 65.4773317,7.17599982 L65.4773317,7.17599982 L65.4773317,40.087999 C65.4773317,47.6159988 67.362665,53.4639987 71.1199982,57.6319986 L71.1199982,57.6319986 C74.8826648,61.8026651 80.5733313,63.8879984 88.1893311,63.8879984 L88.1893311,63.8879984 C95.8053309,63.8879984 101.471997,61.8026651 105.186664,57.6319986 L105.186664,57.6319986 C108.906664,53.4639987 110.762664,47.6159988 110.762664,40.087999 L110.762664,40.087999 L110.762664,3.50399991 C111.127997,3.32533325 111.695997,3.11999992 112.463997,2.89333326 L112.463997,2.89333326 C113.234664,2.66399993 114.02933,2.55199994 114.84533,2.55199994 L114.84533,2.55199994 C116.567997,2.55199994 117.815997,2.98399993 118.583997,3.84266657 L118.583997,3.84266657 C119.354664,4.70666655 119.74133,5.81599985 119.74133,7.17599982 L119.74133,7.17599982 L119.74133,42.8106656 C119.74133,47.0719988 119.015997,50.9679987 117.567997,54.5039986 L117.567997,54.5039986 C116.114664,58.0399985 114.02933,61.0826651 111.309331,63.6186651 L111.309331,63.6186651 C108.589331,66.154665 105.279997,68.1279983 101.381331,69.5333316 L101.381331,69.5333316 C97.4853309,70.9386649 93.085331,71.6426649 88.1893311,71.6426649 L88.1893311,71.6426649 C83.2933313,71.6426649 78.8746647,70.9386649 74.9279981,69.5333316" id="path-24"></path>
        <linearGradient x1="100.000034%" y1="49.9980239%" x2="0.000828691754%" y2="49.9980239%" id="linearGradient-26">
            <stop stop-color="#36C1D0" offset="0%"></stop>
            <stop stop-color="#36C1D0" offset="11.421333%"></stop>
            <stop stop-color="#30358D" offset="100%"></stop>
        </linearGradient>
    </defs>
    <g id="Page-1" stroke="none" stroke-width="1" fill="none" fill-rule="evenodd">
        <g id="Uncrowd_logo_fullcolor" transform="translate(-113.000000, -53.000000)">
            <g id="g10" transform="translate(383.999990, 192.000005) scale(-1, 1) rotate(-180.000000) translate(-383.999990, -192.000005) translate(0.000000, 0.000010)">
                <g id="g12" transform="translate(309.333326, 189.333329)">
                    <g id="g14-Clipped">
                        <mask id="mask-2" fill="white">
                            <use xlink:href="#path-1"></use>
                        </mask>
                        <g id="path16"></g>
                        <g id="g14" mask="url(#mask-2)" fill="url(#linearGradient-3)" fill-rule="nonzero">
                            <g id="g20">
                                <g id="g22">
                                    <path d="M84.6186646,105.034664 C83.4506646,103.722664 82.8666646,102.042664 82.8666646,99.9866642 L82.8666646,99.9866642 L82.8666646,50.1679987 C82.8666646,38.7733324 80.015998,29.9173326 74.3226648,23.6079994 L74.3226648,23.6079994 C68.6293316,17.2933329 60.0133318,14.1386663 48.4879988,14.1386663 L48.4879988,14.1386663 C36.9573324,14.1386663 28.378666,17.2933329 22.7546661,23.6079994 L22.7546661,23.6079994 C17.1253329,29.9173326 14.3146663,38.7733324 14.3146663,50.1679987 L14.3146663,50.1679987 L14.3146663,105.543997 C13.7626663,105.818664 12.9039997,106.127997 11.7386664,106.471997 L11.7386664,106.471997 C10.5733331,106.813331 9.3733331,106.986664 8.1359998,106.986664 L8.1359998,106.986664 C5.52799986,106.986664 3.63999991,106.333331 2.4746666,105.034664 L2.4746666,105.034664 C1.3093333,103.722664 0.725333315,102.042664 0.725333315,99.9866642 L0.725333315,99.9866642 L0.725333315,46.0479988 C0.725333315,39.591999 1.82133329,33.6959992 4.01866657,28.3413326 L4.01866657,28.3413326 C6.21066651,22.9866661 9.3733331,18.3893329 13.4906663,14.5466663 L13.4906663,14.5466663 C17.6053329,10.7066664 22.6159994,7.71999981 28.5173326,5.58933319 L28.5173326,5.58933319 C34.4186658,3.46666658 41.0773323,2.39999994 48.4879988,2.39999994 L48.4879988,2.39999994 C55.8986653,2.39999994 62.5893318,3.46666658 68.5599983,5.58933319 L68.5599983,5.58933319 C74.5306648,7.71999981 79.575998,10.7066664 83.6906646,14.5466663 L83.6906646,14.5466663 C87.8106645,18.3893329 90.9653311,22.9866661 93.1599977,28.3413326 L93.1599977,28.3413326 C95.3573309,33.6959992 96.4559976,39.591999 96.4559976,46.0479988 L96.4559976,46.0479988 L96.4559976,105.543997 C95.9066643,105.818664 95.0479976,106.127997 93.8799977,106.471997 L93.8799977,106.471997 C92.7146643,106.813331 91.517331,106.986664 90.2799977,106.986664 L90.2799977,106.986664 C87.6719978,106.986664 85.7866645,106.333331 84.6186646,105.034664" id="path34"></path>
                                </g>
                            </g>
                        </g>
                    </g>
                </g>
                <g id="g36" transform="translate(351.999991, 223.999994)">
                    <g id="g38-Clipped">
                        <mask id="mask-5" fill="white">
                            <use xlink:href="#path-4"></use>
                        </mask>
                        <g id="path40"></g>
                        <g id="g38" mask="url(#mask-5)" fill="url(#linearGradient-6)" fill-rule="nonzero">
                            <g id="g44">
                                <g id="g46">
                                    <path d="M28.7946659,103.175997 C22.8239994,101.045331 17.7786662,98.0639975 13.661333,94.2186643 L13.661333,94.2186643 C9.54399976,90.3786644 6.38933317,85.7786666 4.19466656,80.423998 L4.19466656,80.423998 C1.99733328,75.0719981 0.895999978,69.1706649 0.895999978,62.7173318 L0.895999978,62.7173318 L0.895999978,3.22133325 C1.4453333,2.94933326 2.30399994,2.63733327 3.47466658,2.29333328 L3.47466658,2.29333328 C4.63999988,1.94933328 5.83733319,1.77866662 7.07466649,1.77866662 L7.07466649,1.77866662 C9.67999976,1.77866662 11.5679997,2.43199994 12.7359997,3.73066657 L12.7359997,3.73066657 C13.901333,5.04266654 14.485333,6.7226665 14.485333,8.77866662 L14.485333,8.77866662 L14.485333,58.5999985 C14.485333,69.9919983 17.3386662,78.8453314 23.0293328,85.1573312 L23.0293328,85.1573312 C28.7253326,91.4719977 37.3413324,94.6266643 48.8639988,94.6266643 L48.8639988,94.6266643 C60.3973318,94.6266643 68.9733316,91.4719977 74.5999981,85.1573312 L74.5999981,85.1573312 C80.2293313,78.8453314 83.0399979,69.9919983 83.0399979,58.5999985 L83.0399979,58.5999985 L83.0399979,3.22133325 C83.5919979,2.94933326 84.4506646,2.63733327 85.6159979,2.29333328 L85.6159979,2.29333328 C86.7813312,1.94933328 87.9839978,1.77866662 89.2213311,1.77866662 L89.2213311,1.77866662 C91.829331,1.77866662 93.717331,2.43199994 94.8799976,3.73066657 L94.8799976,3.73066657 C96.0453309,5.04266654 96.6293309,6.7226665 96.6293309,8.77866662 L96.6293309,8.77866662 L96.6293309,62.7173318 C96.6293309,69.1706649 95.5359976,75.0719981 93.3359977,80.423998 L93.3359977,80.423998 C91.1413311,85.7786666 87.9839978,90.3786644 83.8666646,94.2186643 L83.8666646,94.2186643 C79.7493313,98.0639975 74.7386648,101.045331 68.8373316,103.175997 L68.8373316,103.175997 C62.9359984,105.298664 56.2773319,106.365331 48.8639988,106.365331 L48.8639988,106.365331 C41.4533323,106.365331 34.7653325,105.298664 28.7946659,103.175997" id="path56"></path>
                                </g>
                            </g>
                        </g>
                    </g>
                </g>
                <g id="g58">
                    <g id="g60-Clipped">
                        <mask id="mask-8" fill="white">
                            <use xlink:href="#path-7"></use>
                        </mask>
                        <g id="path62"></g>
                        <g id="g60" mask="url(#mask-8)">
                            <g transform="translate(237.333327, 79.999998)">
                                <g id="g66" transform="translate(1.227733, 2.366933)">
                                    <path d="M37.3333324,63.9999984 C33.5226658,63.9999984 30.0106659,63.4559984 26.7919993,62.3679984 C23.5733327,61.2799985 20.7866661,59.6026652 18.4293329,57.3359986 C16.0693329,55.0666653 14.2346663,52.189332 12.9226663,48.7013321 C11.605333,45.2079989 10.9466664,41.103999 10.9466664,36.3919991 C10.9466664,31.4959992 11.6746664,27.2799993 13.125333,23.7439994 C14.573333,20.2079995 16.5466663,17.3279996 19.0426662,15.1066663 C21.5333328,12.885333 24.4826661,11.2319997 27.8799993,10.1439997 C31.2799992,9.05599977 34.8853325,8.51199979 38.6933324,8.51199979 C43.4986656,8.51199979 47.2373322,9.05599977 49.9119988,10.1439997 C52.5866654,11.2319997 54.6479986,12.1839997 56.1013319,12.9999997 L59.7733318,6.33599984 C57.1439986,4.88533321 54.1039986,3.59466658 50.6613321,2.46133327 C47.2133322,1.32799997 42.6826656,0.759999981 37.0586657,0.759999981 C31.9813325,0.759999981 27.2453327,1.53066663 22.8479994,3.07199992 C18.4506662,4.61066655 14.6639996,6.87999983 11.493333,9.87199975 C8.31733313,12.8639997 5.82666652,16.5359996 4.01333323,20.8879995 C2.19733328,25.2399994 1.29066663,30.1786659 1.29066663,35.7119991 C1.29066663,41.423999 2.19733328,46.5226655 4.01333323,51.0133321 C5.82666652,55.4986653 8.31733313,59.2826652 11.493333,62.3679984 C14.6639996,65.450665 18.4746662,67.7839983 22.9173328,69.3733316 C27.3573326,70.9573316 32.2079992,71.7519982 37.4693324,71.7519982 C43.4533322,71.7519982 48.1226655,71.1413316 51.477332,69.9173316 C54.8319986,68.6933316 56.9173319,67.7173316 57.7306652,66.9919983 C58.3679985,66.5359983 58.9093319,65.970665 59.3653318,65.290665 C59.8186652,64.6106651 60.0453318,63.7733317 60.0453318,62.7759984 C60.0453318,62.0506651 59.7946652,61.1866651 59.2959985,60.1919985 C58.7973319,59.1919985 58.0506652,58.3333319 57.0533319,57.6079986 C55.5093319,58.9679985 53.085332,60.3733318 49.7759988,61.8239985 C46.4666655,63.2746651 42.3173323,63.9999984 37.3333324,63.9999984" id="path68" fill="#231F20" fill-rule="nonzero"></path>
                                </g>
                                <g id="g70" transform="translate(73.873598, 3.320267)">
                                    <path d="M45.3333322,63.9999984 C45.3333322,63.0906651 45.0826655,62.2773318 44.5866656,61.5519985 C44.0853322,60.8239985 43.6106656,60.2346652 43.1573323,59.7839985 C41.6133323,60.5066652 39.6666657,61.1866651 37.3093324,61.8239985 C34.9493325,62.4559984 32.1839992,62.7759984 29.0133326,62.7759984 C25.2933327,62.7759984 22.1893328,62.3199984 19.6986662,61.4133318 C17.2026662,60.5066652 15.1839996,59.1706652 13.645333,57.4026652 C12.101333,55.6346653 11.0133331,53.4346653 10.3813331,50.8079987 C9.74399976,48.1759988 9.4293331,45.1839989 9.4293331,41.831999 L9.4293331,1.71199996 L0.453333322,1.71199996 L0.453333322,46.0479988 C0.453333322,53.9359987 2.8106666,60.0319985 7.52533315,64.3386651 C12.237333,68.642665 19.1306662,70.7999982 28.1973326,70.7999982 C33.0933325,70.7999982 37.1706657,70.2559982 40.4373323,69.1653316 C43.7013322,68.0773316 45.3333322,66.3573317 45.3333322,63.9999984" id="path72" fill="#231F20" fill-rule="nonzero"></path>
                                </g>
                                <g id="g74" transform="translate(126.199197, 1.288800)">
                                    <path d="M63.9999984,37.3333324 C63.9999984,41.231999 63.3653317,44.8826655 62.0959984,48.2799988 C60.8266651,51.6826654 59.0133319,54.6506653 56.6559986,57.1893319 C54.2959986,59.7253318 51.4906654,61.7013318 48.2239988,63.1066651 C44.9599989,64.5093317 41.3333323,65.2133317 37.3439991,65.2133317 C33.3546658,65.2133317 29.7279993,64.5093317 26.4639993,63.1066651 C23.1999994,61.7013318 20.3893328,59.7253318 18.0319995,57.1893319 C15.6746663,54.6506653 13.861333,51.6826654 12.5919997,48.2799988 C11.3199997,44.8826655 10.6879997,41.231999 10.6879997,37.3333324 C10.6879997,33.5253325 11.3439997,29.9226659 12.661333,26.522666 C13.973333,23.1226661 15.7893329,20.1733328 18.1013329,17.6826662 C20.4106662,15.1866663 23.1999994,13.2159997 26.4639993,11.765333 C29.7279993,10.3146664 33.3546658,9.59199976 37.3439991,9.59199976 C41.3333323,9.59199976 44.9599989,10.3146664 48.2239988,11.765333 C51.4906654,13.2159997 54.2959986,15.1866663 56.6559986,17.6826662 C59.0133319,20.1733328 60.8266651,23.1226661 62.0959984,26.522666 C63.3653317,29.9226659 63.9999984,33.5253325 63.9999984,37.3333324 M73.6559982,37.3333324 C73.6559982,32.4373325 72.7493315,27.834666 70.9386649,23.5306661 C69.1226649,19.2239995 66.6079983,15.4586663 63.3893317,12.2426664 C60.1679985,9.02399977 56.3386653,6.48533317 51.8959987,4.62399988 C47.4533321,2.76799993 42.6026656,1.83733329 37.3439991,1.83733329 C32.0853325,1.83733329 27.234666,2.76799993 22.7919994,4.62399988 C18.3493329,6.48533317 14.517333,9.02399977 11.2986664,12.2426664 C8.0799998,15.4586663 5.56533319,19.2239995 3.75199991,23.5306661 C1.93866662,27.834666 1.03199997,32.4373325 1.03199997,37.3333324 C1.03199997,42.3199989 1.93866662,46.9653322 3.75199991,51.2746654 C5.56533319,55.5813319 8.0799998,59.3439985 11.2986664,62.5626651 C14.517333,65.778665 18.3493329,68.2933316 22.7919994,70.1093316 C27.234666,71.9226649 32.0853325,72.8319982 37.3439991,72.8319982 C42.6026656,72.8319982 47.4533321,71.9226649 51.8959987,70.1093316 C56.3386653,68.2933316 60.1679985,65.778665 63.3893317,62.5626651 C66.6079983,59.3439985 69.1226649,55.5813319 70.9386649,51.2746654 C72.7493315,46.9653322 73.6559982,42.3199989 73.6559982,37.3333324" id="path76" fill="#231F20" fill-rule="nonzero"></path>
                                </g>
                                <g id="g78" transform="translate(208.600261, 2.387733)">
                                    <path d="M29.3333326,10.6666664 C30.7839992,14.7466663 32.2106659,18.8293329 33.6159992,22.9066661 C35.0239991,26.986666 36.4506658,31.1786659 37.9013324,35.4879991 C39.351999,39.791999 40.8453323,44.3279989 42.3893323,49.0853321 C43.9306656,53.845332 45.5173322,58.9919985 47.1519988,64.5226651 C47.7839988,66.6079983 48.6453321,68.0133316 49.7333321,68.7386649 C50.8239987,69.4639983 52.2719987,69.8293316 54.085332,69.8293316 C55.3546653,69.8293316 56.4186653,69.6666649 57.2799986,69.3519983 C58.1439985,69.0319983 58.7119985,68.7839983 58.9813319,68.6053316 C60.1599985,64.5226651 61.5413318,60.0373318 63.1306651,55.1386653 C64.7173317,50.2426654 66.3919983,45.2319989 68.162665,40.111999 C69.9306649,34.9866658 71.6986649,29.8879993 73.4666648,24.8133327 C75.2346648,19.7306662 76.9359981,15.0186663 78.5653314,10.6666664 C82.0106646,19.8239995 85.4346645,29.0719993 88.8319978,38.4106657 C92.2346644,47.7466655 95.1599976,56.8159986 97.6079976,65.610665 C98.0559975,67.058665 98.6453309,68.1279983 99.3759975,68.8079983 C100.098664,69.4879983 101.231997,69.8293316 102.773331,69.8293316 C104.042664,69.8293316 105.085331,69.5999983 105.901331,69.1493316 C106.719997,68.6933316 107.215997,68.3759983 107.397331,68.194665 C106.581331,64.8399984 105.287997,60.5546652 103.519997,55.3439986 C101.751997,50.1279987 99.7573308,44.5066656 97.5359976,38.479999 C95.3146643,32.4479992 92.981331,26.3279993 90.5333311,20.1199995 C88.0853311,13.909333 85.7733312,8.08266646 83.5999979,2.6426666 L72.7199982,2.6426666 C71.7199982,4.99999987 70.4506649,8.33066646 68.9093316,12.637333 C67.3679983,16.9439996 65.690665,21.6826661 63.8773317,26.850666 C62.0613318,32.0186659 60.2266652,37.3893324 58.3706652,42.9653323 C56.5093319,48.5439988 54.8106653,53.8239987 53.2719987,58.8133319 C51.725332,53.7306653 50.0719987,48.4293321 48.3039988,42.8986656 C46.5359988,37.3679991 44.7919989,32.0426659 43.0693323,26.9199993 C41.3466656,21.7973328 39.7146657,17.1039996 38.1733324,12.8426663 C36.6293324,8.58133312 35.4053324,5.17866654 34.5013325,2.6426666 L23.6213327,2.6426666 C21.4453328,8.26399979 19.1759995,14.2026663 16.8239996,20.4586662 C14.4639996,26.7173327 12.285333,32.5146659 10.2933331,37.8666657 C8.29866646,43.2159989 6.62133317,47.7946655 5.26399987,51.605332 C3.90133324,55.4106653 3.08533326,57.6773319 2.81333326,58.4026652 C2.45066661,59.3999985 2.06399995,60.5306652 1.65866663,61.8026651 C1.25066664,63.0719984 1.04799997,64.1599984 1.04799997,65.066665 C1.04799997,66.3359983 1.4533333,67.4479983 2.27199994,68.3973316 C3.08533326,69.3519983 4.30933323,69.8293316 5.94399985,69.8293316 C6.93866649,69.8293316 7.75466647,69.7359983 8.38933312,69.5546649 C9.02399977,69.3733316 9.43199976,69.2373316 9.61333309,69.1493316 C10.6106664,65.1573317 11.9039997,60.6933318 13.4906663,55.7493319 C15.0746663,50.8079987 16.7999996,45.7306655 18.6586662,40.5173323 C20.5146662,35.3039991 22.3759994,30.1146659 24.2346661,24.946666 C26.090666,19.7786662 27.7919993,15.0186663 29.3333326,10.6666664" id="path80" fill="#231F20" fill-rule="nonzero"></path>
                                </g>
                                <g id="g82" transform="translate(324.777325, 1.288800)">
                                    <path d="M10.6666664,37.3333324 C10.6666664,33.5253325 11.2773331,29.9226659 12.501333,26.522666 C13.725333,23.1226661 15.4959996,20.1733328 17.8079996,17.6826662 C20.1199995,15.1866663 22.8826661,13.2159997 26.1039993,11.765333 C29.3199993,10.3146664 32.9706658,9.59199976 37.0533324,9.59199976 C40.9466656,9.59199976 44.5306656,10.2719997 47.7946655,11.629333 C51.0586654,12.989333 53.8239987,14.893333 56.0906653,17.3413329 C58.3573319,19.7893328 60.1253318,22.6906661 61.3946651,26.0479993 C62.6639984,29.3973326 63.2986651,33.0693325 63.2986651,37.0613324 C63.2986651,40.9573323 62.6399984,44.6293322 61.3279985,48.0773321 C60.0133318,51.5226654 58.1999985,54.5146653 55.8879986,57.0559986 C53.5759987,59.5919998 50.8106654,61.5866651 47.5919988,63.0399984 C44.3733322,64.4879984 40.8586656,65.2133317 37.0533324,65.2133317 C32.9706658,65.2133317 29.3199993,64.5093317 26.1039993,63.1066651 C22.8826661,61.7013318 20.1199995,59.7253318 17.8079996,57.1893319 C15.4959996,54.6506653 13.725333,51.6826654 12.501333,48.2799988 C11.2773331,44.8826655 10.6666664,41.231999 10.6666664,37.3333324 L10.6666664,37.3333324 Z M63.4346651,99.3493308 C63.4346651,100.711997 63.8213317,101.821331 64.5919984,102.682664 C65.362665,103.541331 66.610665,103.973331 68.330665,103.973331 C69.1493316,103.973331 69.9413316,103.858664 70.7119982,103.634664 C71.4826649,103.405331 72.0479982,103.202664 72.4106649,103.023997 L72.4106649,40.599999 C72.4106649,38.4213324 72.3439982,36.4959991 72.2079982,34.8186658 C72.0693315,33.1413325 71.9119982,31.6666659 71.7306649,30.3973326 C70.9173316,25.954666 69.5066649,21.9653328 67.514665,18.4293329 C65.5199984,14.893333 63.0293318,11.901333 60.0373318,9.4533331 C57.0453319,7.00533316 53.597332,5.12266654 49.7013321,3.81066657 C45.7999989,2.4986666 41.583999,1.83733329 37.0533324,1.83733329 C31.7013325,1.83733329 26.8293327,2.76799993 22.4319994,4.62399988 C18.0346662,6.48533317 14.2479996,9.02399977 11.0746664,12.2426664 C7.90133314,15.4586663 5.43199986,19.2239995 3.66399991,23.5306661 C1.89599995,27.834666 1.01066664,32.4373325 1.01066664,37.3333324 C1.01066664,42.3199989 1.89599995,46.9653322 3.66399991,51.2746654 C5.43199986,55.5813319 7.90133314,59.3439985 11.0746664,62.5626651 C14.2479996,65.778665 18.0346662,68.2933316 22.4319994,70.1093316 C26.8293327,71.9226649 31.7013325,72.8319982 37.0533324,72.8319982 C43.0373323,72.8319982 48.2479988,71.6506649 52.693332,69.2933316 C57.1333319,66.9359983 60.7173318,63.7199984 63.4346651,59.6373318 L63.4346651,99.3493308 Z" id="path84" fill="#231F20" fill-rule="nonzero"></path>
                                </g>
                            </g>
                        </g>
                    </g>
                </g>
                <g id="g86" transform="translate(237.333327, 82.666665)">
                    <g id="g88-Clipped">
                        <mask id="mask-10" fill="white">
                            <use xlink:href="#path-9"></use>
                        </mask>
                        <g id="path90"></g>
                        <g id="g88" mask="url(#mask-10)" fill="url(#linearGradient-11)" fill-rule="nonzero">
                            <g id="g94">
                                <g id="g96">
                                    <path d="M24.1439994,69.0719983 C19.7013328,67.4853316 15.8933329,65.1519984 12.7199997,62.0666651 L12.7199997,62.0666651 C9.54399976,58.9839985 7.05333316,55.2026653 5.24266654,50.7146654 L5.24266654,50.7146654 C3.42399991,46.2239988 2.51999994,41.1253323 2.51999994,35.4106658 L2.51999994,35.4106658 C2.51999994,29.8799993 3.42399991,24.938666 5.24266654,20.5893328 L5.24266654,20.5893328 C7.05333316,16.2373329 9.54399976,12.565333 12.7199997,9.57333309 L12.7199997,9.57333309 C15.8933329,6.5786665 19.6773328,4.31199989 24.0773327,2.77333326 L24.0773327,2.77333326 C28.4719993,1.23199997 33.2079992,0.458666655 38.287999,0.458666655 L38.287999,0.458666655 C43.9119989,0.458666655 48.4426655,1.02933331 51.8879987,2.16266661 L51.8879987,2.16266661 C55.3333319,3.29333325 58.3706652,4.58399989 60.9999985,6.03733318 L60.9999985,6.03733318 L57.3279986,12.6986663 C55.8773319,11.885333 53.813332,10.9306664 51.1386654,9.84266642 L51.1386654,9.84266642 C48.4666655,8.75733311 44.7253322,8.21333313 39.919999,8.21333313 L39.919999,8.21333313 C36.1119991,8.21333313 32.5093325,8.75733311 29.1066659,9.84266642 L29.1066659,9.84266642 C25.7093327,10.9306664 22.7626661,12.5866664 20.2719995,14.8079996 L20.2719995,14.8079996 C17.7733329,17.0293329 15.8026663,19.9093328 14.3519996,23.4453327 L14.3519996,23.4453327 C12.9039997,26.9813327 12.1759997,31.1946659 12.1759997,36.0933324 L12.1759997,36.0933324 C12.1759997,40.8026656 12.8319997,44.9066655 14.1519996,48.3999988 L14.1519996,48.3999988 C15.4613329,51.8879987 17.2959996,54.7679986 19.6586662,57.0373319 L19.6586662,57.0373319 C22.0159994,59.3039985 24.802666,60.9813318 28.0213326,62.0666651 L28.0213326,62.0666651 C31.2399992,63.1546651 34.7519991,63.6986651 38.559999,63.6986651 L38.559999,63.6986651 C43.5466656,63.6986651 47.6933321,62.9759984 51.0053321,61.5226651 L51.0053321,61.5226651 C54.3146653,60.0719985 56.7386652,58.6693319 58.2799985,57.3066652 L58.2799985,57.3066652 C59.2773319,58.0319985 60.0239985,58.8933319 60.5253318,59.8933318 L60.5253318,59.8933318 C61.0213318,60.8879985 61.2719985,61.7519985 61.2719985,62.4746651 L61.2719985,62.4746651 C61.2719985,63.4746651 61.0479985,64.3119984 60.5919985,64.9919984 L60.5919985,64.9919984 C60.1359985,65.6719984 59.5946652,66.2373317 58.9573319,66.6933317 L58.9573319,66.6933317 C58.1439985,67.4159983 56.0586653,68.394665 52.7039987,69.6186649 L52.7039987,69.6186649 C49.3493321,70.8426649 44.6799989,71.4533315 38.695999,71.4533315 L38.695999,71.4533315 C33.4373325,71.4533315 28.5839993,70.6586649 24.1439994,69.0719983" id="path106"></path>
                                </g>
                            </g>
                        </g>
                    </g>
                </g>
                <g id="g108" transform="translate(309.333326, 82.666665)">
                    <g id="g110-Clipped">
                        <mask id="mask-13" fill="white">
                            <use xlink:href="#path-12"></use>
                        </mask>
                        <g id="path112"></g>
                        <g id="g110" mask="url(#mask-13)" fill="url(#linearGradient-14)" fill-rule="nonzero">
                            <g id="g116">
                                <g id="g118">
                                    <path d="M9.39999977,64.9919984 C4.68266655,60.6853318 2.32533328,54.589332 2.32533328,46.7013322 L2.32533328,46.7013322 L2.32533328,2.36533327 L11.3039997,2.36533327 L11.3039997,42.4826656 C11.3039997,45.8399989 11.6186664,48.8319988 12.2559997,51.4586654 L12.2559997,51.4586654 C12.885333,54.0879986 13.9759997,56.2879986 15.5199996,58.0559985 L15.5199996,58.0559985 C17.0586662,59.8266652 19.0773329,61.1599985 21.5706661,62.0666651 L21.5706661,62.0666651 C24.0613327,62.9759984 27.1679993,63.4293317 30.8853326,63.4293317 L30.8853326,63.4293317 C34.0586658,63.4293317 36.8239991,63.1093318 39.1813324,62.4746651 L39.1813324,62.4746651 C41.5386656,61.8426651 43.4879989,61.1599985 45.0293322,60.4373318 L45.0293322,60.4373318 C45.4826655,60.8879985 45.9599989,61.4773318 46.4586655,62.2053318 L46.4586655,62.2053318 C46.9573322,62.9279984 47.2053322,63.7439984 47.2053322,64.6533317 L47.2053322,64.6533317 C47.2053322,67.0079983 45.5733322,68.7333316 42.3119989,69.8186649 L42.3119989,69.8186649 C39.0453324,70.9093316 34.9679991,71.4533315 30.0719992,71.4533315 L30.0719992,71.4533315 C21.0053328,71.4533315 14.109333,69.2959983 9.39999977,64.9919984" id="path128"></path>
                                </g>
                            </g>
                        </g>
                    </g>
                </g>
                <g id="g130" transform="translate(362.666658, 82.666665)">
                    <g id="g132-Clipped">
                        <mask id="mask-16" fill="white">
                            <use xlink:href="#path-15"></use>
                        </mask>
                        <g id="path134"></g>
                        <g id="g132" mask="url(#mask-16)" fill="url(#linearGradient-17)" fill-rule="nonzero">
                            <g id="g138">
                                <g id="g140">
                                    <path d="M23.6559994,68.7333316 C19.2133329,66.914665 15.3839996,64.3999984 12.165333,61.1839985 L12.165333,61.1839985 C8.94666644,57.9653319 6.43199984,54.2026653 4.61599988,49.8959988 L4.61599988,49.8959988 C2.8026666,45.5893322 1.89866662,40.943999 1.89866662,35.9546658 L1.89866662,35.9546658 C1.89866662,31.0586659 2.8026666,26.4586667 4.61599988,22.1519994 L4.61599988,22.1519994 C6.43199984,17.8453329 8.94666644,14.0799996 12.165333,10.8639997 L12.165333,10.8639997 C15.3839996,7.64533314 19.2133329,5.10666654 23.6559994,3.24533325 L23.6559994,3.24533325 C28.1013326,1.39199997 32.9519992,0.458666655 38.2106657,0.458666655 L38.2106657,0.458666655 C43.4693322,0.458666655 48.3199988,1.39199997 52.7599987,3.24533325 L52.7599987,3.24533325 C57.2026652,5.10666654 61.0346651,7.64533314 64.2559984,10.8639997 L64.2559984,10.8639997 C67.4719983,14.0799996 69.9893316,17.8453329 71.8026649,22.1519994 L71.8026649,22.1519994 C73.6159982,26.4586667 74.5226648,31.0586659 74.5226648,35.9546658 L74.5226648,35.9546658 C74.5226648,40.943999 73.6159982,45.5893322 71.8026649,49.8959988 L71.8026649,49.8959988 C69.9893316,54.2026653 67.4719983,57.9653319 64.2559984,61.1839985 L64.2559984,61.1839985 C61.0346651,64.3999984 57.2026652,66.914665 52.7599987,68.7333316 L52.7599987,68.7333316 C48.3199988,70.5439982 43.4693322,71.4533315 38.2106657,71.4533315 L38.2106657,71.4533315 C32.9519992,71.4533315 28.1013326,70.5439982 23.6559994,68.7333316 M27.3279993,10.3893331 C24.0666661,11.837333 21.2773328,13.8079997 18.9679995,16.3039996 L18.9679995,16.3039996 C16.6559996,18.7946662 14.8399996,21.7439995 13.5279997,25.146666 L13.5279997,25.146666 C12.2079997,28.5439993 11.5519997,32.1493325 11.5519997,35.9546658 L11.5519997,35.9546658 C11.5519997,39.8533323 12.1866664,43.5066656 13.4559997,46.9039988 L13.4559997,46.9039988 C14.7279996,50.3066654 16.5413329,53.2746653 18.8986662,55.8133319 L18.8986662,55.8133319 C21.2533328,58.3466652 24.0666661,60.3226652 27.3279993,61.7279985 L27.3279993,61.7279985 C30.5946659,63.1333318 34.2186658,63.8373317 38.2106657,63.8373317 L38.2106657,63.8373317 C42.1999989,63.8373317 45.8266655,63.1333318 49.0879988,61.7279985 L49.0879988,61.7279985 C52.3546654,60.3226652 55.1626653,58.3466652 57.5226652,55.8133319 L57.5226652,55.8133319 C59.8799985,53.2746653 61.6906651,50.3066654 62.9599984,46.9039988 L62.9599984,46.9039988 C64.2319984,43.5066656 64.866665,39.8533323 64.866665,35.9546658 L64.866665,35.9546658 C64.866665,32.1493325 64.2319984,28.5439993 62.9599984,25.146666 L62.9599984,25.146666 C61.6906651,21.7439995 59.8799985,18.7946662 57.5226652,16.3039996 L57.5226652,16.3039996 C55.1626653,13.8079997 52.3546654,11.837333 49.0879988,10.3893331 L49.0879988,10.3893331 C45.8266655,8.93599978 42.1999989,8.21333313 38.2106657,8.21333313 L38.2106657,8.21333313 C34.2186658,8.21333313 30.5946659,8.93599978 27.3279993,10.3893331" id="path150"></path>
                                </g>
                            </g>
                        </g>
                    </g>
                </g>
                <g id="g152" transform="translate(445.333322, 82.666665)">
                    <g id="g154-Clipped">
                        <mask id="mask-19" fill="white">
                            <use xlink:href="#path-18"></use>
                        </mask>
                        <g id="path156"></g>
                        <g id="g154" mask="url(#mask-19)" fill="url(#linearGradient-20)" fill-rule="nonzero">
                            <g id="g160">
                                <g id="g162">
                                    <path d="M99.9759975,68.5279983 C99.2453309,67.8479983 98.6586642,66.7813317 98.2053309,65.3333317 L98.2053309,65.3333317 C95.7599976,56.5359986 92.8346643,47.4693321 89.4346644,38.1333324 L89.4346644,38.1333324 C86.0373312,28.7946659 82.6106646,19.5439995 79.1653314,10.3893331 L79.1653314,10.3893331 C77.5359981,14.7386663 75.8346648,19.4533328 74.0666648,24.5333327 L74.0666648,24.5333327 C72.2986649,29.6106659 70.5306649,34.7066658 68.7599983,39.8346657 L68.7599983,39.8346657 C66.994665,44.9519989 65.3173317,49.9653321 63.7306651,54.8586653 L63.7306651,54.8586653 C62.1413318,59.7573318 60.7599985,64.2453317 59.5813318,68.3253316 L59.5813318,68.3253316 C59.3119985,68.5039983 58.7439985,68.7519983 57.8826652,69.0719983 L57.8826652,69.0719983 C57.0213319,69.3866649 55.9546653,69.5493316 54.685332,69.5493316 L54.685332,69.5493316 C52.869332,69.5493316 51.4239987,69.1839983 50.3333321,68.4613316 L50.3333321,68.4613316 C49.2453321,67.7333316 48.3839988,66.3279983 47.7519988,64.2453317 L47.7519988,64.2453317 C46.1199988,58.7119985 44.5306656,53.5679987 42.9893323,48.8079988 L42.9893323,48.8079988 C41.4453323,44.0479989 39.951999,39.511999 38.5013324,35.2106658 L38.5013324,35.2106658 C37.0506657,30.9013326 35.6239991,26.7093327 34.2186658,22.6293328 L34.2186658,22.6293328 C32.8106658,18.5493329 31.3839992,14.469333 29.9333326,10.3893331 L29.9333326,10.3893331 C28.3919993,14.7386663 26.690666,19.4986662 24.834666,24.6693327 L24.834666,24.6693327 C22.9759994,29.8346659 21.1173328,35.0266658 19.2586662,40.239999 L19.2586662,40.239999 C17.3973329,45.4533322 15.6746663,50.5279987 14.0879996,55.4693319 L14.0879996,55.4693319 C12.5039997,60.4133318 11.2079997,64.8773317 10.2159997,68.8693316 L10.2159997,68.8693316 C10.0319997,68.9573316 9.62133309,69.0933316 8.99199978,69.2746649 L8.99199978,69.2746649 C8.35466646,69.4586649 7.53599981,69.5493316 6.54399984,69.5493316 L6.54399984,69.5493316 C4.90933321,69.5493316 3.68533324,69.0719983 2.87199993,68.1199983 L2.87199993,68.1199983 C2.05333328,67.170665 1.64799996,66.0559983 1.64799996,64.7893317 L1.64799996,64.7893317 C1.64799996,63.8799984 1.84799995,62.7946651 2.25866661,61.5226651 L2.25866661,61.5226651 C2.66399993,60.2533318 3.05066659,59.1226652 3.41333325,58.1253319 L3.41333325,58.1253319 C3.68533324,57.3973319 4.50133322,55.1306653 5.86399985,51.3253321 L5.86399985,51.3253321 C7.22133315,47.5173321 8.90133311,42.9386656 10.8933331,37.5866657 L10.8933331,37.5866657 C12.885333,32.2346659 15.0639996,26.4373327 17.4213329,20.1813328 L17.4213329,20.1813328 C19.7759995,13.9226663 22.0453328,7.9839998 24.2213327,2.36533327 L24.2213327,2.36533327 L35.1039991,2.36533327 C36.0053324,4.89866654 37.2293324,8.30399979 38.775999,12.565333 L38.775999,12.565333 C40.3146657,16.8239996 41.9466656,21.5173328 43.6719989,26.6399993 L43.6719989,26.6399993 C45.3919989,31.7626659 47.1359988,37.0879991 48.9066654,42.6213323 L48.9066654,42.6213323 C50.6719987,48.1493321 52.325332,53.453332 53.8719987,58.5333319 L53.8719987,58.5333319 C55.4106653,53.5439987 57.1119986,48.2666655 58.9679985,42.6879989 L58.9679985,42.6879989 C60.8266651,37.1119991 62.6639984,31.7386659 64.4773317,26.570666 L64.4773317,26.570666 C66.290665,21.4053328 67.9679983,16.6666662 69.5093316,12.3599997 L69.5093316,12.3599997 C71.0506649,8.05066647 72.3173315,4.72266655 73.3173315,2.36533327 L73.3173315,2.36533327 L84.1999979,2.36533327 C86.3759978,7.80266647 88.6853311,13.6319997 91.1333311,19.8426662 L91.1333311,19.8426662 C93.581331,26.0479993 95.9146643,32.1679992 98.1359975,38.199999 L98.1359975,38.199999 C100.357331,44.2293322 102.354664,49.8479988 104.119997,55.0639986 L104.119997,55.0639986 C105.887997,60.2746652 107.181331,64.5599984 107.997331,67.9173316 L107.997331,67.9173316 C107.815997,68.0959983 107.319997,68.4133316 106.501331,68.8693316 L106.501331,68.8693316 C105.685331,69.3199983 104.639997,69.5493316 103.373331,69.5493316 L103.373331,69.5493316 C101.831997,69.5493316 100.701331,69.2079983 99.9759975,68.5279983" id="path172"></path>
                                </g>
                            </g>
                        </g>
                    </g>
                </g>
                <g id="g174" transform="translate(562.666653, 82.666665)">
                    <g id="g176-Clipped">
                        <mask id="mask-22" fill="white">
                            <use xlink:href="#path-21"></use>
                        </mask>
                        <g id="path178"></g>
                        <g id="g176" mask="url(#mask-22)" fill="url(#linearGradient-23)" fill-rule="nonzero">
                            <g id="g182">
                                <g id="g184">
                                    <path d="M64.0346651,101.306664 C63.2666651,100.442664 62.8799984,99.3333308 62.8799984,97.9706642 L62.8799984,97.9706642 L62.8799984,58.2613319 C60.1599985,62.3413318 56.5759986,65.5573317 52.1359987,67.9173316 L52.1359987,67.9173316 C47.6906655,70.2746649 42.4799989,71.4533315 36.4959991,71.4533315 L36.4959991,71.4533315 C31.1439992,71.4533315 26.2719993,70.5439982 21.8773328,68.7333316 L21.8773328,68.7333316 C17.4773329,66.914665 13.6906663,64.3999984 10.5199997,61.1839985 L10.5199997,61.1839985 C7.34666648,57.9653319 4.87466654,54.2026653 3.10666659,49.8959988 L3.10666659,49.8959988 C1.3413333,45.5893322 0.455999989,40.943999 0.455999989,35.9546658 L0.455999989,35.9546658 C0.455999989,31.0586659 1.3413333,26.4586667 3.10666659,22.1519994 L3.10666659,22.1519994 C4.87466654,17.8453329 7.34666648,14.0799996 10.5199997,10.8639997 L10.5199997,10.8639997 C13.6906663,7.64533314 17.4773329,5.10666654 21.8773328,3.24533325 L21.8773328,3.24533325 C26.2719993,1.39199997 31.1439992,0.458666655 36.4959991,0.458666655 L36.4959991,0.458666655 C41.0266656,0.458666655 45.2426655,1.11999997 49.1439988,2.43199994 L49.1439988,2.43199994 C53.0426653,3.74399991 56.4879986,5.62666653 59.4799985,8.07466646 L59.4799985,8.07466646 C62.4746651,10.5226664 64.9653317,13.5146663 66.9599983,17.0506662 L66.9599983,17.0506662 C68.9519983,20.5893328 70.3599982,24.5786661 71.1759982,29.0186659 L71.1759982,29.0186659 C71.3546649,30.2906659 71.5146649,31.7626659 71.6533315,33.4399992 L71.6533315,33.4399992 C71.7866649,35.1173325 71.8559982,37.0426657 71.8559982,39.2213324 L71.8559982,39.2213324 L71.8559982,101.645331 C71.4906649,101.826664 70.9253316,102.026664 70.1546649,102.258664 L70.1546649,102.258664 C69.3839983,102.479997 68.594665,102.597331 67.7759983,102.597331 L67.7759983,102.597331 C66.0533317,102.597331 64.8053317,102.165331 64.0346651,101.306664 M25.5493327,10.3893331 C22.3253328,11.837333 19.5626662,13.8079997 17.2506662,16.3039996 L17.2506662,16.3039996 C14.9386663,18.7946662 13.1706663,21.7439995 11.9466664,25.146666 L11.9466664,25.146666 C10.7226664,28.5439993 10.1093331,32.1493325 10.1093331,35.9546658 L10.1093331,35.9546658 C10.1093331,39.8533323 10.7226664,43.5066656 11.9466664,46.9039988 L11.9466664,46.9039988 C13.1706663,50.3066654 14.9386663,53.2746653 17.2506662,55.8133319 L17.2506662,55.8133319 C19.5626662,58.3466652 22.3253328,60.3226652 25.5493327,61.7279985 L25.5493327,61.7279985 C28.7653326,63.1333318 32.4159992,63.8373317 36.4959991,63.8373317 L36.4959991,63.8373317 C40.303999,63.8373317 43.8159989,63.1093318 47.0346655,61.6613318 L47.0346655,61.6613318 C50.2559987,60.2079985 53.0186653,58.2133331 55.3306653,55.6773319 L55.3306653,55.6773319 C57.6453319,53.1359987 59.4559985,50.1439987 60.7706651,46.7013322 L60.7706651,46.7013322 C62.0853318,43.2506656 62.7439984,39.5786657 62.7439984,35.6853324 L62.7439984,35.6853324 C62.7439984,31.6933325 62.1093331,28.0213326 60.8399985,24.6693327 L60.8399985,24.6693327 C59.5706652,21.3146661 57.7999986,18.4106662 55.5359986,15.9626663 L55.5359986,15.9626663 C53.2666653,13.5146663 50.5039987,11.613333 47.2373322,10.2506664 L47.2373322,10.2506664 C43.9733322,8.89333311 40.391999,8.21333313 36.4959991,8.21333313 L36.4959991,8.21333313 C32.4159992,8.21333313 28.7653326,8.93599978 25.5493327,10.3893331" id="path194"></path>
                                </g>
                            </g>
                        </g>
                    </g>
                </g>
                <g id="g196" transform="translate(111.999997, 82.666665)">
                    <g id="g198-Clipped">
                        <mask id="mask-25" fill="white">
                            <use xlink:href="#path-24"></use>
                        </mask>
                        <g id="path200"></g>
                        <g id="g198" mask="url(#mask-25)" fill="url(#linearGradient-26)" fill-rule="nonzero">
                            <g id="g204">
                                <g id="g206">
                                    <path d="M74.9279981,69.5333316 C71.1093316,68.170665 67.874665,66.266665 65.2053317,63.8426651 L65.2053317,63.8426651 L65.2053317,70.6879982 C64.842665,70.8666649 64.2773317,71.0719982 63.5066651,71.2986649 L63.5066651,71.2986649 C62.7359984,71.5253315 61.9439985,71.6426649 61.1253318,71.6426649 L61.1253318,71.6426649 C59.4053318,71.6426649 58.1573319,71.2106649 57.3866652,70.3466649 L57.3866652,70.3466649 C56.6159986,69.4826649 56.2293319,68.3759983 56.2293319,67.0159983 L56.2293319,67.0159983 L56.2293319,34.1039991 C56.2293319,26.578666 54.349332,20.7306661 50.5893321,16.5599996 L50.5893321,16.5599996 C46.8239988,12.3866664 41.1333323,10.3039997 33.5199992,10.3039997 L33.5199992,10.3039997 C25.9013327,10.3039997 20.2346662,12.3866664 16.5199996,16.5599996 L16.5199996,16.5599996 C12.7999997,20.7306661 10.9439997,26.578666 10.9439997,34.1039991 L10.9439997,34.1039991 L10.9439997,70.6879982 C10.5786664,70.8666649 10.0106664,71.0719982 9.24266644,71.2986649 L9.24266644,71.2986649 C8.47199979,71.5253315 7.67733314,71.6426649 6.86133316,71.6426649 L6.86133316,71.6426649 C5.13866654,71.6426649 3.89066657,71.2106649 3.12266659,70.3466649 L3.12266659,70.3466649 C2.35199994,69.4826649 1.96533328,68.3759983 1.96533328,67.0159983 L1.96533328,67.0159983 L1.96533328,31.3839992 C1.96533328,27.1199993 2.6906666,23.2239994 4.14133323,19.6879995 L4.14133323,19.6879995 C5.59199986,16.1519996 7.67733314,13.1119997 10.3999997,10.5759997 L10.3999997,10.5759997 C13.1199997,8.03733313 16.4293329,6.06666651 20.3253328,4.65866655 L20.3253328,4.65866655 C24.2266661,3.25599992 28.6239993,2.55199994 33.5199992,2.55199994 L33.5199992,2.55199994 C38.415999,2.55199994 42.8346656,3.25599992 46.7786655,4.65866655 L46.7786655,4.65866655 C50.5973321,6.02133318 53.8319987,7.92266647 56.5013319,10.3466664 L56.5013319,10.3466664 L56.5013319,3.50399991 C56.8639986,3.32533325 57.4293319,3.11999992 58.1999985,2.89333326 L58.1999985,2.89333326 C58.9733319,2.66399993 59.7626652,2.55199994 60.5813318,2.55199994 L60.5813318,2.55199994 C62.3013318,2.55199994 63.5493317,2.98399993 64.3199984,3.84266657 L64.3199984,3.84266657 C65.0933317,4.70666655 65.4773317,5.81599985 65.4773317,7.17599982 L65.4773317,7.17599982 L65.4773317,40.087999 C65.4773317,47.6159988 67.362665,53.4639987 71.1199982,57.6319986 L71.1199982,57.6319986 C74.8826648,61.8026651 80.5733313,63.8879984 88.1893311,63.8879984 L88.1893311,63.8879984 C95.8053309,63.8879984 101.471997,61.8026651 105.186664,57.6319986 L105.186664,57.6319986 C108.906664,53.4639987 110.762664,47.6159988 110.762664,40.087999 L110.762664,40.087999 L110.762664,3.50399991 C111.127997,3.32533325 111.695997,3.11999992 112.463997,2.89333326 L112.463997,2.89333326 C113.234664,2.66399993 114.02933,2.55199994 114.84533,2.55199994 L114.84533,2.55199994 C116.567997,2.55199994 117.815997,2.98399993 118.583997,3.84266657 L118.583997,3.84266657 C119.354664,4.70666655 119.74133,5.81599985 119.74133,7.17599982 L119.74133,7.17599982 L119.74133,42.8106656 C119.74133,47.0719988 119.015997,50.9679987 117.567997,54.5039986 L117.567997,54.5039986 C116.114664,58.0399985 114.02933,61.0826651 111.309331,63.6186651 L111.309331,63.6186651 C108.589331,66.154665 105.279997,68.1279983 101.381331,69.5333316 L101.381331,69.5333316 C97.4853309,70.9386649 93.085331,71.6426649 88.1893311,71.6426649 L88.1893311,71.6426649 C83.2933313,71.6426649 78.8746647,70.9386649 74.9279981,69.5333316" id="path216"></path>
                                </g>
                            </g>
                        </g>
                    </g>
                </g>
            </g>
        </g>
    </g>
</svg>